<svg xmlns="http://www.w3.org/2000/svg" viewBox="0 0 388.56 388.56"><path d="M154.32 0c.39.33 1.07.44 1.56.48 1.61.12 4.28-.22 5.7.05.62.12 1.71.76 1.63 1.5-1.97 27.63-2.84 55.37-3.14 83.04-.13 11.68.28 23.39.02 35.06-.02.93-.68 3.4-.02 4.08.32.23.68.36 1.08.36 1.53.01 3.7-.39 5.29-.48 13.84-.8 27.71-2.58 41.52-3.84 5.26-.48 10.59-.59 15.84-1.2.93-.11 3.03-.29 3.79-.53.36-.11.54-.45.72-.75-.16-4.89 0-9.8-.06-14.7-.25-24.95-.65-49.92-1.21-74.87L225.36 0H381.6c.62.77 3.46.77 4.08 0h.72c.42.9 1.33.75 1.45 1.79.5 4.11-.41 9.24 0 13.46-2.25 32.63-2.15 65.4-2.4 98.16-.7 90.37.56 180.67 1.67 270.95.01.94-.57 1.99.02 3.08-.02.14-.58.4-.62.4H227.16c-1.01-.95-.35-1.98-.35-2.99-.17-41.99.66-84.22 1.18-126.26.04-2.89.55-5.96.26-8.88-.11-1.12-.21-1.21-1.32-1.32-3.75-.36-8.27.64-12.02.97-15.12 1.35-30.25 2.66-45.36 4.08-2.45.23-5.21.13-7.68.48-.88.13-1.83.24-2.24 1.13l2.57 132.51H1.23c-.02-3.95-.09-7.91-.04-11.86.92-79.22 1.18-158.58.26-237.84-.22-19.14-.21-38.46-.97-57.6-.02-.46.25-.96-.48-.83V0h154.32Zm-8.1 241.26c.78-.84 5.65-.67 7.02-.78 28.58-2.41 57.13-4.93 85.68-7.44 1.21-.11 2.56-.97 3.61 0 .17 4.83.17 9.69.13 14.53-.29 31.19-1.27 62.38-1.7 93.58-.05 3.76.25 7.57-.24 11.28.54 5.99-.68 13.13 0 18.98.11.97.6 1.6 1.58 1.78 42.95.51 86.02.24 128.99.14l1.08-.6c.14-14.84.22-29.69.13-44.53-.24-39.18-1.2-78.4-1.46-117.58-.41-61.42.31-122.82 1.44-184.1.06-3.37.71-7.19.26-10.56-.09-.71-.31-1.05-1.08-1.08-6.01-.21-12.01-.12-18.02-.22-34.27-.55-69.41-.87-103.66 0-1.84.05-7.44-.36-8.71.17s-.82 3.68-.79 4.99c.68 29.5 2.37 58.98 2.18 88.54l-.23 22.59c-.46.65-3.94.94-4.94 1.06-21.09 2.54-42.44 3.67-63.6 5.52-7.65.67-15.67 2-23.28 2.4-.69.04-4.15.11-4.45-.1l-.24-.72c-.12-40.62.33-81.19 1.94-121.68.07-1.71.07-2.32-1.81-2.53-5.6-.62-12.1.3-17.75-.49-35.17.51-70.48-.75-105.6.26-1.6.05-7.36-.39-8.23.53-.37.39-.33 1.45-.32 1.99.84 25.85.53 51.85.72 77.76.61 82.05 2.14 164.11 1.22 246.24-.1 8.6-.63 17.3-.74 25.9-.02 1.49-.27 5.77 1.58 6.13s5.18-.06 7.2 0c40.54 1.17 81.33-.37 121.92.26 2.26-.21 1.54-1.87 1.53-3.25-.01-13.87-.44-27.68-.7-41.54-.53-28.43-1.24-57.05-1.23-85.43 0-.45.29-1.68.56-1.98Z" style="fill:#000"/><path d="M386.4 0h2.16v388.56H0V79.44c.73-.13.46.37.48.83.76 19.14.75 38.46.97 57.6.92 79.26.66 158.62-.26 237.84-.05 3.95.03 7.91.04 11.86H162.2l-2.57-132.51c.41-.89 1.36-1.01 2.24-1.13 2.47-.36 5.22-.26 7.68-.48 15.11-1.41 30.24-2.72 45.36-4.08 3.75-.34 8.27-1.34 12.02-.97 1.11.11 1.21.2 1.32 1.32.28 2.93-.23 5.99-.26 8.88-.52 42.04-1.35 84.27-1.18 126.26 0 1.01-.66 2.04.35 2.99h159.36s.6-.25.62-.4c-.59-1.1 0-2.14-.02-3.08-1.11-90.28-2.37-180.58-1.67-270.95.25-32.76.15-65.53 2.4-98.16-.41-4.23.51-9.35 0-13.46-.13-1.04-1.04-.88-1.45-1.79Z" style="fill:none"/><path d="m225.36 0 1.68 28.2c.56 24.94.96 49.92 1.21 74.87.05 4.9-.1 9.81.06 14.7-.18.3-.35.64-.72.75-.76.23-2.86.42-3.79.53-5.25.61-10.58.72-15.84 1.2-13.81 1.26-27.68 3.04-41.52 3.84-1.59.09-3.76.5-5.29.48-.4 0-.76-.13-1.08-.36-.67-.67 0-3.15.02-4.08.25-11.67-.15-23.38-.02-35.06.3-27.67 1.17-55.41 3.14-83.04.08-.74-1.01-1.38-1.63-1.5-1.41-.27-4.09.07-5.7-.05-.49-.04-1.18-.14-1.56-.48h71.04ZM385.68 0c-.62.77-3.46.77-4.08 0h4.08Z" style="fill:none"/><path d="M146.22 241.26c-.28.3-.56 1.53-.56 1.98-.01 28.38.7 57 1.23 85.43.26 13.86.69 27.67.7 41.54 0 1.38.72 3.03-1.53 3.25-40.6-.63-81.38.91-121.92-.26-2.03-.06-5.43.34-7.2 0s-1.6-4.63-1.58-6.13c.11-8.6.64-17.3.74-25.9.92-82.13-.61-164.19-1.22-246.24-.19-25.91.12-51.91-.72-77.76-.02-.53-.05-1.6.32-1.99.87-.92 6.63-.49 8.23-.53 35.12-1.01 70.44.25 105.6-.26 5.65.79 12.15-.13 17.75.49 1.88.21 1.88.82 1.81 2.53-1.61 40.5-2.06 81.06-1.94 121.68l.24.72c.3.21 3.76.14 4.45.1 7.62-.4 15.63-1.73 23.28-2.4 21.16-1.85 42.5-2.98 63.6-5.52 1-.12 4.48-.41 4.94-1.06l.23-22.59c.19-29.56-1.5-59.04-2.18-88.54-.03-1.3-.41-4.48.79-4.99 1.26-.53 6.87-.13 8.71-.17 34.25-.87 69.39-.55 103.66 0 6.01.1 12.02.01 18.02.22.77.03.99.37 1.08 1.08.45 3.37-.2 7.2-.26 10.56-1.13 61.28-1.85 122.68-1.44 184.1.26 39.18 1.22 78.4 1.46 117.58.09 14.84 0 29.69-.13 44.53l-1.08.6c-42.97.1-86.04.37-128.99-.14-.98-.18-1.47-.81-1.58-1.78-.69-5.85.53-12.99 0-18.98.49-3.71.19-7.52.24-11.28.43-31.2 1.41-62.39 1.7-93.58.05-4.84.04-9.7-.13-14.53-1.04-.97-2.39-.11-3.61 0-28.55 2.51-57.1 5.03-85.68 7.44-1.37.12-6.23-.06-7.02.78ZM255.39 28.59c.19 7.24.26 14.47.44 21.7.53 22.03 1 44.13.72 66.24-.16 8.25 1.06 18.03.27 26.16-.26 2.63-3.14 1.87-4.93 2.03-30.64 2.71-61.24 5.64-91.92 8.16-8.27.68-16.94 1.89-25.19 2.17-.96.03-2.31.14-2.67-.96-.39-36.24-.5-72.44.6-108.62.1-3.25.14-6.56.24-9.84.05-1.48.97-5.78.02-6.72-.3-.3-.44-.31-.84-.36-5.8-.77-13.04.8-18.96-.24-27.04-.66-54.19.87-81.14.26-1.32-.03-2.94-.88-3.82.47l.6 23.62c.73 100.83 2.7 201.81.72 302.66-.03 1.48-1.05 3.44 1.31 3.71s5.01-.35 7.43.25l94.93-.13c.69-.33.52-1.94.49-2.65-.86-21.97-1.49-44-1.7-65.98-.18-19.28.27-38.58.02-57.86-.03-2.53-1.07-4.34 2.51-4.66 31.49-2.81 63.02-5.55 94.55-8.17 6.92-.57 14.2-1.65 21.11-1.93 1.45-.06 4.75-.22 6.01.01 1.49.27.61 3.2.59 4.19-.89 43.28-.88 86.56-1.68 129.84-.02 1.1-.15 6.51.23 6.99.26.33.7.36 1.09.35 32.18-.04 64.17.39 96.24-.26 2.16-.04 4.45.75 6.25-.47l-.37-13.07c-1.14-96.36-2.79-192.85-.72-289.22.09-4.03.44-8.19.5-12.22.07-4.84.01-9.7-.12-14.54-.27-.64-.51-.87-1.2-.96-3.85-.52-9.8.08-13.94.02-28.69-.41-57.5.12-86.15-.27-.53 0-1.05.07-1.53.3Z" style="fill:#fff"/><path d="M255.39 28.59c.48-.22 1-.3 1.53-.3 28.65.39 57.46-.14 86.15.27 4.14.06 10.09-.54 13.94-.02.69.09.93.32 1.2.96.13 4.84.19 9.7.12 14.54-.06 4.03-.41 8.19-.5 12.22-2.07 96.37-.42 192.86.72 289.22l.37 13.07c-1.8 1.22-4.09.42-6.25.47-32.08.66-64.06.22-96.24.26-.39.01-.83-.02-1.09-.35-.38-.48-.25-5.89-.23-6.99.8-43.28.79-86.56 1.68-129.84.02-.99.9-3.92-.59-4.19-1.27-.23-4.56-.07-6.01-.01-6.91.28-14.19 1.35-21.11 1.93-31.53 2.62-63.07 5.36-94.55 8.17-3.58.32-2.55 2.13-2.51 4.66.24 19.28-.21 38.58-.02 57.86.21 21.98.84 44.01 1.7 65.98.03.71.2 2.32-.49 2.65l-94.93.13c-2.42-.6-5 .04-7.43-.25s-1.33-2.23-1.31-3.71c1.98-100.85.01-201.83-.72-302.66l-.6-23.62c.88-1.35 2.51-.5 3.82-.47 26.96.6 54.11-.93 81.14-.26 5.92 1.03 13.16-.53 18.96.24.4.05.54.06.84.36.95.95.02 5.24-.02 6.72-.1 3.28-.14 6.59-.24 9.84-1.1 36.18-1 72.38-.6 108.62.36 1.1 1.71.99 2.67.96 8.25-.28 16.92-1.49 25.19-2.17 30.68-2.52 61.28-5.45 91.92-8.16 1.8-.16 4.68.6 4.93-2.03.79-8.13-.42-17.92-.27-26.16.28-22.11-.18-44.21-.72-66.24-.18-7.23-.24-14.46-.44-21.7Z" style="fill:red"/></svg>
